<svg width="320" height="320" viewBox="0 0 320 320" fill="none" xmlns="http://www.w3.org/2000/svg">
<circle cx="160" cy="160" r="160" fill="black"/>
<ellipse cx="160" cy="163.2" rx="153.6" ry="153.6" fill="url(#paint0_linear)"/>
<ellipse cx="160" cy="169.6" rx="144" ry="150.4" fill="black"/>
<path d="M125.053 198.64H115.773V192C115.773 191.147 115.613 190.587 115.293 190.32C114.973 190 114.386 189.84 113.533 189.84H109.773C108.92 189.84 108.333 190 108.013 190.32C107.693 190.587 107.533 191.147 107.533 192V224.8C107.533 225.653 107.693 226.24 108.013 226.56C108.333 226.827 108.92 226.96 109.773 226.96H113.533C114.386 226.96 114.973 226.827 115.293 226.56C115.613 226.24 115.773 225.653 115.773 224.8V213.6H111.773V207.12H125.053V225.76C125.053 231.04 122.146 233.68 116.333 233.68H106.973C101.16 233.68 98.2529 231.04 98.2529 225.76V191.04C98.2529 185.76 101.16 183.12 106.973 183.12H116.333C122.146 183.12 125.053 185.76 125.053 191.04V198.64Z" fill="#FF8B17"/>
<path d="M141.214 226.56H156.574V233.6H131.934V183.12H155.934V190.16H141.214V204.16H153.614V211.28H141.214V226.56Z" fill="#FF8B17"/>
<path d="M171.136 226.56H186.496V233.6H161.856V183.12H185.856V190.16H171.136V204.16H183.536V211.28H171.136V226.56Z" fill="#FF8B17"/>
<path d="M221.378 183.12L210.978 208.24L221.298 233.6H211.378L201.378 208.24L211.458 183.12H221.378ZM191.778 233.6V183.12H200.978V233.6H191.778Z" fill="#FF8B17"/>
<path d="M127.863 85.8558H140.967V163.328C140.967 171.776 136.455 176 127.431 176H111.447C102.423 176 97.9106 171.776 97.9106 163.328V85.8558H111.015V161.312C111.015 163.04 111.303 164.192 111.879 164.768C112.455 165.248 113.607 165.488 115.335 165.488H123.543C125.367 165.488 126.519 165.248 126.999 164.768C127.575 164.192 127.863 163.04 127.863 161.312V85.8558Z" fill="white"/>
<path d="M181.497 161.312V139.28C181.497 137.552 181.209 136.448 180.633 135.968C180.153 135.392 179.049 135.104 177.321 135.104H166.665C157.929 135.104 153.561 130.832 153.561 122.288V98.5278C153.561 90.0798 158.025 85.8558 166.953 85.8558H181.065C189.993 85.8558 194.457 90.0798 194.457 98.5278V111.776H181.353V100.544C181.353 98.8158 181.065 97.7118 180.489 97.2318C179.913 96.6558 178.761 96.3678 177.033 96.3678H170.985C169.257 96.3678 168.105 96.6558 167.529 97.2318C166.953 97.7118 166.665 98.8158 166.665 100.544V120.56C166.665 122.288 166.953 123.44 167.529 124.016C168.105 124.496 169.257 124.736 170.985 124.736H181.497C190.329 124.736 194.745 128.96 194.745 137.408V163.328C194.745 171.776 190.233 176 181.209 176H167.241C158.313 176 153.849 171.776 153.849 163.328V150.08H166.953V161.312C166.953 163.04 167.241 164.192 167.817 164.768C168.393 165.248 169.545 165.488 171.273 165.488H177.321C179.049 165.488 180.153 165.248 180.633 164.768C181.209 164.192 181.497 163.04 181.497 161.312Z" fill="white"/>
<path d="M208.76 85.8558H221.72V176H208.76V85.8558Z" fill="white"/>
<defs>
<linearGradient id="paint0_linear" x1="160" y1="9.59998" x2="160" y2="316.8" gradientUnits="userSpaceOnUse">
<stop stop-color="#FF8B17"/>
<stop offset="1" stop-color="#FF9934" stop-opacity="0"/>
</linearGradient>
</defs>
</svg>
