<?xml version="1.0" standalone="no"?>
<!DOCTYPE svg PUBLIC "-//W3C//DTD SVG 20010904//EN"
 "http://www.w3.org/TR/2001/REC-SVG-20010904/DTD/svg10.dtd">
<svg version="1.0" xmlns="http://www.w3.org/2000/svg"
 width="700.000000pt" height="700.000000pt" viewBox="0 0 700.000000 700.000000"
 preserveAspectRatio="xMidYMid meet">
<metadata>
Created by potrace 1.11, written by Peter Selinger 2001-2013
</metadata>
<g transform="translate(0.000000,700.000000) scale(0.100000,-0.100000)"
fill="#000000" stroke="none">
<path d="M3215 6989 c-748 -64 -1435 -351 -1995 -835 -551 -475 -938 -1101
-1114 -1799 -34 -137 -72 -346 -88 -490 -17 -155 -17 -575 0 -730 63 -570 255
-1100 567 -1570 270 -405 644 -771 1047 -1024 445 -280 906 -443 1458 -518
190 -25 629 -25 820 0 528 71 972 224 1395 480 405 245 772 584 1043 963 350
491 556 1034 634 1669 16 130 16 600 0 730 -73 596 -246 1079 -557 1555 -139
213 -239 336 -449 548 -657 668 -1554 1038 -2496 1031 -91 -1 -210 -6 -265
-10z m665 -225 c630 -70 1222 -317 1725 -720 164 -131 525 -501 525 -538 0 -3
-65 -6 -144 -6 l-144 0 -64 72 c-92 104 -284 276 -434 389 -463 348 -990 553
-1563 609 -205 20 -527 11 -736 -21 -659 -99 -1262 -412 -1752 -906 l-142
-143 -140 0 c-78 0 -141 3 -141 6 0 37 361 407 525 538 555 445 1215 697 1935
740 114 6 410 -4 550 -20z m-1450 -2494 c0 -837 0 -850 20 -870 18 -18 33 -20
163 -20 78 0 147 4 154 8 31 20 33 69 33 898 l0 834 140 0 140 0 0 -884 c0
-982 3 -936 -67 -1008 -67 -68 -92 -73 -403 -73 l-275 0 -57 27 c-68 32 -112
86 -127 159 -7 33 -11 337 -11 914 l0 865 145 0 145 0 0 -850z m1693 821 c26
-13 60 -39 74 -57 46 -61 52 -96 53 -291 l0 -183 -140 0 -140 0 0 129 c0 126
-9 178 -33 193 -7 4 -64 8 -127 8 -174 0 -160 27 -160 -309 0 -247 2 -280 17
-292 12 -10 67 -15 212 -19 157 -5 204 -9 236 -23 50 -23 91 -61 118 -112 21
-39 22 -53 25 -398 4 -418 0 -443 -73 -513 -69 -67 -123 -76 -401 -72 l-230 3
-59 30 c-45 23 -66 42 -90 79 l-30 49 -3 204 -3 203 139 0 140 0 4 -155 c2
-109 7 -158 16 -167 9 -9 52 -14 137 -16 179 -5 165 -32 165 326 0 244 -2 291
-16 310 -14 21 -22 22 -157 22 -293 1 -381 37 -423 176 -18 60 -20 660 -3 730
17 65 80 131 149 155 50 17 80 19 305 16 240 -2 252 -3 298 -26z m727 -956 l0
-985 -140 0 -140 0 0 985 0 985 140 0 140 0 0 -985z m-2200 -1167 c66 -34 80
-68 80 -200 l0 -108 -94 0 -94 0 -3 85 c-3 62 -8 88 -19 95 -22 14 -144 12
-158 -2 -9 -9 -12 -111 -12 -400 0 -443 -8 -408 97 -408 89 0 88 -2 91 160 l4
140 -46 0 -46 0 0 70 0 70 140 0 140 0 0 -231 c0 -260 -5 -282 -69 -321 -34
-22 -46 -23 -216 -23 -198 0 -223 6 -269 68 -21 28 -21 37 -21 475 0 427 1
448 20 480 37 61 78 72 265 72 152 0 169 -2 210 -22z m760 -53 l0 -75 -160 0
-160 0 0 -155 0 -155 135 0 135 0 0 -75 0 -75 -135 0 -135 0 0 -170 0 -170
165 0 165 0 0 -75 0 -75 -265 0 -265 0 0 550 0 550 260 0 260 0 0 -75z m650 0
l0 -75 -160 0 -160 0 0 -155 0 -155 135 0 135 0 0 -75 0 -75 -135 0 -135 0 0
-170 0 -170 170 0 170 0 0 -75 0 -75 -270 0 -270 0 0 550 0 550 260 0 260 0 0
-75z m330 -475 l0 -550 -95 0 -95 0 0 550 0 550 95 0 95 0 0 -550z m353 323
c-52 -126 -103 -248 -113 -273 l-18 -46 112 -274 112 -275 -100 -3 c-54 -1
-103 1 -107 5 -4 4 -56 130 -114 278 l-107 270 109 272 108 273 106 0 106 0
-94 -227z"/>
</g>
</svg>
