<svg width="16" height="15" viewBox="0 0 16 15" fill="none" xmlns="http://www.w3.org/2000/svg">
<g opacity="0.25">
<g clip-path="url(#clip0)">
<path d="M5.39568 8.4375H4.15942C3.95543 8.4375 3.78854 8.2793 3.78854 8.08594V6.91406C3.78854 6.7207 3.95543 6.5625 4.15942 6.5625H5.39568C5.59966 6.5625 5.76656 6.7207 5.76656 6.91406V8.08594C5.76656 8.2793 5.59966 8.4375 5.39568 8.4375ZM8.73359 8.08594V6.91406C8.73359 6.7207 8.5667 6.5625 8.36271 6.5625H7.12645C6.92247 6.5625 6.75557 6.7207 6.75557 6.91406V8.08594C6.75557 8.2793 6.92247 8.4375 7.12645 8.4375H8.36271C8.5667 8.4375 8.73359 8.2793 8.73359 8.08594ZM11.7006 8.08594V6.91406C11.7006 6.7207 11.5337 6.5625 11.3297 6.5625H10.0935C9.8895 6.5625 9.7226 6.7207 9.7226 6.91406V8.08594C9.7226 8.2793 9.8895 8.4375 10.0935 8.4375H11.3297C11.5337 8.4375 11.7006 8.2793 11.7006 8.08594ZM8.73359 10.8984V9.72656C8.73359 9.5332 8.5667 9.375 8.36271 9.375H7.12645C6.92247 9.375 6.75557 9.5332 6.75557 9.72656V10.8984C6.75557 11.0918 6.92247 11.25 7.12645 11.25H8.36271C8.5667 11.25 8.73359 11.0918 8.73359 10.8984ZM5.76656 10.8984V9.72656C5.76656 9.5332 5.59966 9.375 5.39568 9.375H4.15942C3.95543 9.375 3.78854 9.5332 3.78854 9.72656V10.8984C3.78854 11.0918 3.95543 11.25 4.15942 11.25H5.39568C5.59966 11.25 5.76656 11.0918 5.76656 10.8984ZM11.7006 10.8984V9.72656C11.7006 9.5332 11.5337 9.375 11.3297 9.375H10.0935C9.8895 9.375 9.7226 9.5332 9.7226 9.72656V10.8984C9.7226 11.0918 9.8895 11.25 10.0935 11.25H11.3297C11.5337 11.25 11.7006 11.0918 11.7006 10.8984ZM14.6677 3.28125V13.5938C14.6677 14.3701 14.0032 15 13.1841 15H2.30502C1.486 15 0.821503 14.3701 0.821503 13.5938V3.28125C0.821503 2.50488 1.486 1.875 2.30502 1.875H3.78854V0.351562C3.78854 0.158203 3.95543 0 4.15942 0H5.39568C5.59966 0 5.76656 0.158203 5.76656 0.351562V1.875H9.7226V0.351562C9.7226 0.158203 9.8895 0 10.0935 0H11.3297C11.5337 0 11.7006 0.158203 11.7006 0.351562V1.875H13.1841C14.0032 1.875 14.6677 2.50488 14.6677 3.28125ZM13.1841 13.418V4.6875H2.30502V13.418C2.30502 13.5146 2.38847 13.5938 2.49046 13.5938H12.9987C13.1007 13.5938 13.1841 13.5146 13.1841 13.418Z" fill="black"/>
</g>
</g>
<defs>
<clipPath id="clip0">
<rect x="0.244598" width="15" height="15" fill="white"/>
</clipPath>
</defs>
</svg>
