<svg width="15" height="15" viewBox="0 0 15 15" fill="none" xmlns="http://www.w3.org/2000/svg">
<g opacity="0.25">
<g clip-path="url(#clip0)">
<path d="M5.15108 8.4375H3.91482C3.71083 8.4375 3.54394 8.2793 3.54394 8.08594V6.91406C3.54394 6.7207 3.71083 6.5625 3.91482 6.5625H5.15108C5.35506 6.5625 5.52196 6.7207 5.52196 6.91406V8.08594C5.52196 8.2793 5.35506 8.4375 5.15108 8.4375ZM8.48899 8.08594V6.91406C8.48899 6.7207 8.3221 6.5625 8.11811 6.5625H6.88185C6.67787 6.5625 6.51097 6.7207 6.51097 6.91406V8.08594C6.51097 8.2793 6.67787 8.4375 6.88185 8.4375H8.11811C8.3221 8.4375 8.48899 8.2793 8.48899 8.08594ZM11.456 8.08594V6.91406C11.456 6.7207 11.2891 6.5625 11.0851 6.5625H9.84888C9.6449 6.5625 9.478 6.7207 9.478 6.91406V8.08594C9.478 8.2793 9.6449 8.4375 9.84888 8.4375H11.0851C11.2891 8.4375 11.456 8.2793 11.456 8.08594ZM8.48899 10.8984V9.72656C8.48899 9.5332 8.3221 9.375 8.11811 9.375H6.88185C6.67787 9.375 6.51097 9.5332 6.51097 9.72656V10.8984C6.51097 11.0918 6.67787 11.25 6.88185 11.25H8.11811C8.3221 11.25 8.48899 11.0918 8.48899 10.8984ZM5.52196 10.8984V9.72656C5.52196 9.5332 5.35506 9.375 5.15108 9.375H3.91482C3.71083 9.375 3.54394 9.5332 3.54394 9.72656V10.8984C3.54394 11.0918 3.71083 11.25 3.91482 11.25H5.15108C5.35506 11.25 5.52196 11.0918 5.52196 10.8984ZM11.456 10.8984V9.72656C11.456 9.5332 11.2891 9.375 11.0851 9.375H9.84888C9.6449 9.375 9.478 9.5332 9.478 9.72656V10.8984C9.478 11.0918 9.6449 11.25 9.84888 11.25H11.0851C11.2891 11.25 11.456 11.0918 11.456 10.8984ZM14.4231 3.28125V13.5938C14.4231 14.3701 13.7586 15 12.9395 15H2.06042C1.2414 15 0.576904 14.3701 0.576904 13.5938V3.28125C0.576904 2.50488 1.2414 1.875 2.06042 1.875H3.54394V0.351562C3.54394 0.158203 3.71083 0 3.91482 0H5.15108C5.35506 0 5.52196 0.158203 5.52196 0.351562V1.875H9.478V0.351562C9.478 0.158203 9.6449 0 9.84888 0H11.0851C11.2891 0 11.456 0.158203 11.456 0.351562V1.875H12.9395C13.7586 1.875 14.4231 2.50488 14.4231 3.28125ZM12.9395 13.418V4.6875H2.06042V13.418C2.06042 13.5146 2.14387 13.5938 2.24586 13.5938H12.7541C12.8561 13.5938 12.9395 13.5146 12.9395 13.418Z" fill="black"/>
</g>
</g>
<defs>
<clipPath id="clip0">
<rect x="0.576904" width="13.8462" height="15" fill="white"/>
</clipPath>
</defs>
</svg>
