<svg width="16" height="15" viewBox="0 0 16 15" fill="none" xmlns="http://www.w3.org/2000/svg">
<g opacity="0.25">
<g clip-path="url(#clip0)">
<path d="M7.62385 0C3.4807 0 0.12384 3.35686 0.12384 7.50001C0.12384 11.6432 3.4807 15 7.62385 15C11.767 15 15.1238 11.6432 15.1238 7.50001C15.1238 3.35686 11.767 0 7.62385 0ZM7.62385 13.5484C4.28212 13.5484 1.57545 10.8417 1.57545 7.50001C1.57545 4.15828 4.28212 1.45161 7.62385 1.45161C10.9656 1.45161 13.6723 4.15828 13.6723 7.50001C13.6723 10.8417 10.9656 13.5484 7.62385 13.5484ZM9.49281 10.3912L6.92526 8.52521C6.83151 8.45566 6.77708 8.34679 6.77708 8.23186V3.26614C6.77708 3.06654 6.94038 2.90324 7.13998 2.90324H8.10772C8.30732 2.90324 8.47063 3.06654 8.47063 3.26614V7.55143L10.4907 9.02118C10.6541 9.13913 10.6874 9.36595 10.5694 9.52925L10.0009 10.3125C9.88293 10.4728 9.65611 10.5091 9.49281 10.3912Z" fill="black"/>
</g>
</g>
<defs>
<clipPath id="clip0">
<rect x="0.12384" width="15" height="15" fill="white"/>
</clipPath>
</defs>
</svg>
