<svg width="15" height="15" viewBox="0 0 15 15" fill="none" xmlns="http://www.w3.org/2000/svg">
<g opacity="0.25">
<path d="M7.5 0.234375C3.48633 0.234375 0.234375 3.48633 0.234375 7.5C0.234375 11.5137 3.48633 14.7656 7.5 14.7656C11.5137 14.7656 14.7656 11.5137 14.7656 7.5C14.7656 3.48633 11.5137 0.234375 7.5 0.234375ZM7.5 13.3594C4.2627 13.3594 1.64062 10.7373 1.64062 7.5C1.64062 4.2627 4.2627 1.64062 7.5 1.64062C10.7373 1.64062 13.3594 4.2627 13.3594 7.5C13.3594 10.7373 10.7373 13.3594 7.5 13.3594ZM9.31055 10.3008L6.82324 8.49316C6.73242 8.42578 6.67969 8.32031 6.67969 8.20898V3.39844C6.67969 3.20508 6.83789 3.04688 7.03125 3.04688H7.96875C8.16211 3.04688 8.32031 3.20508 8.32031 3.39844V7.54981L10.2773 8.97363C10.4355 9.08789 10.4678 9.30762 10.3535 9.46582L9.80273 10.2246C9.68848 10.3799 9.46875 10.415 9.31055 10.3008Z" fill="black"/>
</g>
</svg>
