<svg width="36" height="35" viewBox="0 0 36 35" xmlns="http://www.w3.org/2000/svg">
<path d="m31.4 0c2 0 3.7 1.6 3.8 3.6v.2 27.5c0 2-1.6 3.6-3.6 3.7h-.2-27.5c-2 0-3.6-1.6-3.7-3.6v-.1-27.5c0-2.1 1.6-3.7 3.5-3.8h.2zm-17.1 8.4h-.1c-.5.1-3.2.2-6 2.3 0 0-3.1 5.6-3.1 12.6 0 0 1.8 3.1 6.6 3.3 0 0 .8-1 1.4-1.8-2.7-.9-3.8-2.6-3.8-2.6.4.2.9.5.9.6 3.7 2 8.8 2.7 13.5.7.7-.3 1.6-.7 2.5-1.3 0 0-1.1 1.8-3.9 2.6.6.8 1.4 1.8 1.4 1.8 4.7-.2 6.6-3.3 6.6-3.3 0-7-3.1-12.6-3.1-12.6-3.1-2.3-6.1-2.3-6.1-2.3l-.3.4c3.7 1.1 5.4 2.7 5.4 2.7-5.1-2.8-11.2-2.8-16.1-.6-.8.4-1.3.6-1.3.6s1.8-1.7 5.7-2.8zm7.2 8.1c1.3 0 2.2 1.1 2.2 2.4s-.9 2.4-2.2 2.4c-1.2 0-2.2-1.1-2.2-2.4s1-2.4 2.2-2.4zm-7.8 0c1.2 0 2.2 1.1 2.2 2.4s-1 2.4-2.2 2.4-2.2-1.1-2.2-2.4.9-2.4 2.2-2.4z"/>
</svg>
