<svg width="36" height="35" viewBox="0 0 36 35" fill="none" xmlns="http://www.w3.org/2000/svg">
<g clip-path="url(#clip0)">
<rect x="0.1875" width="35" height="35" rx="5" fill="black"/>
<path d="M27.7896 14.8258C27.9496 14.6986 28.1875 14.8176 28.1875 15.0186V23.4062C28.1875 24.4932 27.3057 25.375 26.2188 25.375H9.15625C8.06934 25.375 7.1875 24.4932 7.1875 23.4062V15.0227C7.1875 14.8176 7.42129 14.7027 7.58535 14.8299C8.5041 15.5436 9.72227 16.45 13.9059 19.4893C14.7713 20.1209 16.2314 21.4498 17.6875 21.4416C19.1518 21.4539 20.6406 20.0963 21.4732 19.4893C25.6568 16.45 26.8709 15.5395 27.7896 14.8258ZM17.6875 20.125C18.6391 20.1414 20.009 18.9273 20.698 18.427C26.1408 14.4771 26.5551 14.1326 27.8102 13.1482C28.048 12.9637 28.1875 12.6766 28.1875 12.373V11.5938C28.1875 10.5068 27.3057 9.625 26.2188 9.625H9.15625C8.06934 9.625 7.1875 10.5068 7.1875 11.5938V12.373C7.1875 12.6766 7.32695 12.9596 7.56484 13.1482C8.81992 14.1285 9.23418 14.4771 14.677 18.427C15.366 18.9273 16.7359 20.1414 17.6875 20.125Z" fill="#FF8B17"/>
</g>
<defs>
<clipPath id="clip0">
<rect x="0.1875" width="35" height="35" fill="white"/>
</clipPath>
</defs>
</svg>
