<svg width="36" height="35" viewBox="0 0 36 35" fill="none" xmlns="http://www.w3.org/2000/svg">
<path d="M31.4375 0H3.9375C2.94294 0 1.98911 0.395088 1.28585 1.09835C0.582588 1.80161 0.1875 2.75544 0.1875 3.75L0.1875 31.25C0.1875 32.2446 0.582588 33.1984 1.28585 33.9016C1.98911 34.6049 2.94294 35 3.9375 35H14.6602V23.1008H9.73828V17.5H14.6602V13.2312C14.6602 8.37578 17.5508 5.69375 21.9781 5.69375C24.0984 5.69375 26.3156 6.07188 26.3156 6.07188V10.8375H23.8727C21.4656 10.8375 20.7148 12.3312 20.7148 13.8633V17.5H26.0883L25.2289 23.1008H20.7148V35H31.4375C32.4321 35 33.3859 34.6049 34.0891 33.9016C34.7924 33.1984 35.1875 32.2446 35.1875 31.25V3.75C35.1875 2.75544 34.7924 1.80161 34.0891 1.09835C33.3859 0.395088 32.4321 0 31.4375 0Z" fill="black"/>
</svg>
