<svg width="36" height="35" viewBox="0 0 36 35" fill="none" xmlns="http://www.w3.org/2000/svg">
<g clip-path="url(#clip0)">
<rect x="0.1875" width="35" height="35" rx="3.75" fill="black"/>
<path d="M17.6903 11.0919C14.1432 11.0919 11.282 13.953 11.282 17.5001C11.282 21.0473 14.1432 23.9084 17.6903 23.9084C21.2374 23.9084 24.0985 21.0473 24.0985 17.5001C24.0985 13.953 21.2374 11.0919 17.6903 11.0919ZM17.6903 21.6663C15.398 21.6663 13.5241 19.798 13.5241 17.5001C13.5241 15.2023 15.3925 13.3339 17.6903 13.3339C19.9881 13.3339 21.8565 15.2023 21.8565 17.5001C21.8565 19.798 19.9825 21.6663 17.6903 21.6663ZM25.8554 10.8298C25.8554 11.6608 25.1861 12.3245 24.3607 12.3245C23.5297 12.3245 22.866 11.6552 22.866 10.8298C22.866 10.0043 23.5352 9.33505 24.3607 9.33505C25.1861 9.33505 25.8554 10.0043 25.8554 10.8298ZM30.0997 12.3468C30.0048 10.3445 29.5475 8.57097 28.0807 7.10973C26.6195 5.6485 24.8459 5.19116 22.8437 5.09077C20.7801 4.97365 14.5949 4.97365 12.5313 5.09077C10.5347 5.18558 8.76112 5.64292 7.2943 7.10416C5.82749 8.56539 5.37573 10.339 5.27534 12.3412C5.15822 14.4048 5.15822 20.5899 5.27534 22.6535C5.37015 24.6557 5.82749 26.4293 7.2943 27.8905C8.76112 29.3518 10.5291 29.8091 12.5313 29.9095C14.5949 30.0266 20.7801 30.0266 22.8437 29.9095C24.8459 29.8147 26.6195 29.3574 28.0807 27.8905C29.5419 26.4293 29.9993 24.6557 30.0997 22.6535C30.2168 20.5899 30.2168 14.4103 30.0997 12.3468ZM27.4337 24.8677C26.9987 25.9608 26.1565 26.803 25.0578 27.2436C23.4125 27.8961 19.5085 27.7455 17.6903 27.7455C15.8721 27.7455 11.9625 27.8905 10.3227 27.2436C9.22961 26.8086 8.38744 25.9664 7.94684 24.8677C7.2943 23.2224 7.44489 19.3183 7.44489 17.5001C7.44489 15.682 7.29988 11.7723 7.94684 10.1326C8.38187 9.03946 9.22403 8.1973 10.3227 7.75669C11.968 7.10416 15.8721 7.25474 17.6903 7.25474C19.5085 7.25474 23.4181 7.10973 25.0578 7.75669C26.151 8.19172 26.9931 9.03388 27.4337 10.1326C28.0863 11.7779 27.9357 15.682 27.9357 17.5001C27.9357 19.3183 28.0863 23.228 27.4337 24.8677Z" fill="#FF8B17"/>
</g>
<defs>
<clipPath id="clip0">
<rect x="0.1875" width="35" height="35" fill="white"/>
</clipPath>
</defs>
</svg>
