<svg width="340" height="343" viewBox="0 0 340 343" fill="none" xmlns="http://www.w3.org/2000/svg">
<g filter="url(#filter0_d)">
<circle cx="170" cy="170.5" r="120" fill="url(#paint0_linear)"/>
<ellipse cx="170" cy="175.5" rx="112.5" ry="117.5" fill="black"/>
<path d="M142.698 198.187H135.448V193C135.448 192.333 135.323 191.896 135.073 191.687C134.823 191.437 134.364 191.312 133.698 191.312H130.76C130.094 191.312 129.635 191.437 129.385 191.687C129.135 191.896 129.01 192.333 129.01 193V218.625C129.01 219.292 129.135 219.75 129.385 220C129.635 220.208 130.094 220.312 130.76 220.312H133.698C134.364 220.312 134.823 220.208 135.073 220C135.323 219.75 135.448 219.292 135.448 218.625V209.875H132.323V204.812H142.698V219.375C142.698 223.5 140.427 225.562 135.885 225.562H128.573C124.031 225.562 121.76 223.5 121.76 219.375V192.25C121.76 188.125 124.031 186.062 128.573 186.062H135.885C140.427 186.062 142.698 188.125 142.698 192.25V198.187Z" fill="#FF8B17"/>
<path d="M155.324 220H167.324V225.5H148.074V186.062H166.824V191.562H155.324V202.5H165.011V208.062H155.324V220Z" fill="#FF8B17"/>
<path d="M178.7 220H190.7V225.5H171.45V186.062H190.2V191.562H178.7V202.5H188.388V208.062H178.7V220Z" fill="#FF8B17"/>
<path d="M217.952 186.062L209.827 205.687L217.889 225.5H210.139L202.327 205.687L210.202 186.062H217.952ZM194.827 225.5V186.062H202.014V225.5H194.827Z" fill="#FF8B17"/>
<path d="M144.893 110.075H155.13V170.6C155.13 177.2 151.605 180.5 144.555 180.5H132.068C125.018 180.5 121.493 177.2 121.493 170.6V110.075H131.73V169.025C131.73 170.375 131.955 171.275 132.405 171.725C132.855 172.1 133.755 172.287 135.105 172.287H141.518C142.943 172.287 143.843 172.1 144.218 171.725C144.668 171.275 144.893 170.375 144.893 169.025V110.075Z" fill="white"/>
<path d="M186.795 169.025V151.812C186.795 150.462 186.57 149.6 186.12 149.225C185.745 148.775 184.882 148.55 183.532 148.55H175.207C168.382 148.55 164.97 145.212 164.97 138.537V119.975C164.97 113.375 168.457 110.075 175.432 110.075H186.457C193.432 110.075 196.92 113.375 196.92 119.975V130.325H186.682V121.55C186.682 120.2 186.457 119.337 186.007 118.962C185.557 118.512 184.657 118.287 183.307 118.287H178.582C177.232 118.287 176.332 118.512 175.882 118.962C175.432 119.337 175.207 120.2 175.207 121.55V137.187C175.207 138.537 175.432 139.437 175.882 139.887C176.332 140.262 177.232 140.45 178.582 140.45H186.795C193.695 140.45 197.145 143.75 197.145 150.35V170.6C197.145 177.2 193.62 180.5 186.57 180.5H175.657C168.682 180.5 165.195 177.2 165.195 170.6V160.25H175.432V169.025C175.432 170.375 175.657 171.275 176.107 171.725C176.557 172.1 177.457 172.287 178.807 172.287H183.532C184.882 172.287 185.745 172.1 186.12 171.725C186.57 171.275 186.795 170.375 186.795 169.025Z" fill="white"/>
<path d="M208.094 110.075H218.219V180.5H208.094V110.075Z" fill="white"/>
</g>
<defs>
<filter id="filter0_d" x="-5" y="-7" width="350" height="350" filterUnits="userSpaceOnUse" color-interpolation-filters="sRGB">
<feFlood flood-opacity="0" result="BackgroundImageFix"/>
<feColorMatrix in="SourceAlpha" type="matrix" values="0 0 0 0 0 0 0 0 0 0 0 0 0 0 0 0 0 0 127 0"/>
<feOffset/>
<feGaussianBlur stdDeviation="25"/>
<feColorMatrix type="matrix" values="0 0 0 0 1 0 0 0 0 0.545098 0 0 0 0 0.0901961 0 0 0 0.5 0"/>
<feBlend mode="normal" in2="BackgroundImageFix" result="effect1_dropShadow"/>
<feBlend mode="normal" in="SourceGraphic" in2="effect1_dropShadow" result="shape"/>
</filter>
<linearGradient id="paint0_linear" x1="170" y1="50.5" x2="170" y2="290.5" gradientUnits="userSpaceOnUse">
<stop stop-color="#FF8B17"/>
<stop offset="1" stop-color="#FF9934" stop-opacity="0"/>
</linearGradient>
</defs>
</svg>
