<svg width="13" height="15" viewBox="0 0 13 15" fill="none" xmlns="http://www.w3.org/2000/svg">
<g opacity="0.25">
<g clip-path="url(#clip0)">
<path d="M5.90704 14.6974C1.54111 8.5263 0.730713 7.89296 0.730713 5.625C0.730713 2.51839 3.31368 0 6.49994 0C9.68621 0 12.2692 2.51839 12.2692 5.625C12.2692 7.89296 11.4588 8.5263 7.09285 14.6974C6.80634 15.1009 6.19351 15.1009 5.90704 14.6974ZM6.49994 7.96875C7.82756 7.96875 8.90379 6.91942 8.90379 5.625C8.90379 4.33058 7.82756 3.28125 6.49994 3.28125C5.17233 3.28125 4.0961 4.33058 4.0961 5.625C4.0961 6.91942 5.17233 7.96875 6.49994 7.96875Z" fill="black"/>
</g>
</g>
<defs>
<clipPath id="clip0">
<rect x="0.730713" width="11.5385" height="15" fill="white"/>
</clipPath>
</defs>
</svg>
