<svg width="16" height="15" viewBox="0 0 16 15" fill="none" xmlns="http://www.w3.org/2000/svg">
<g opacity="0.25">
<g clip-path="url(#clip0)">
<path d="M7.27244 14.6974C2.90651 8.5263 2.09612 7.89296 2.09612 5.625C2.09612 2.51839 4.67908 0 7.86534 0C11.0516 0 13.6346 2.51839 13.6346 5.625C13.6346 7.89296 12.8242 8.5263 8.45825 14.6974C8.17174 15.1009 7.55891 15.1009 7.27244 14.6974ZM7.86534 7.96875C9.19296 7.96875 10.2692 6.91942 10.2692 5.625C10.2692 4.33058 9.19296 3.28125 7.86534 3.28125C6.53773 3.28125 5.4615 4.33058 5.4615 5.625C5.4615 6.91942 6.53773 7.96875 7.86534 7.96875Z" fill="black"/>
</g>
</g>
<defs>
<clipPath id="clip0">
<rect x="0.365356" width="15" height="15" fill="white"/>
</clipPath>
</defs>
</svg>
