<svg width="36" height="35" viewBox="0 0 36 35" fill="none" xmlns="http://www.w3.org/2000/svg">
<path d="M31.4375 0H3.9375C1.86719 0 0.1875 1.67969 0.1875 3.75V31.25C0.1875 33.3203 1.86719 35 3.9375 35H31.4375C33.5078 35 35.1875 33.3203 35.1875 31.25V3.75C35.1875 1.67969 33.5078 0 31.4375 0ZM27.6172 12.4062C27.6328 12.625 27.6328 12.8516 27.6328 13.0703C27.6328 19.8438 22.4766 27.6484 13.0547 27.6484C10.1484 27.6484 7.45312 26.8047 5.1875 25.3516C5.60156 25.3984 6 25.4141 6.42188 25.4141C8.82031 25.4141 11.0234 24.6016 12.7812 23.2266C10.5312 23.1797 8.64062 21.7031 7.99219 19.6719C8.78125 19.7891 9.49219 19.7891 10.3047 19.5781C7.96094 19.1016 6.20312 17.0391 6.20312 14.5469V14.4844C6.88281 14.8672 7.67969 15.1016 8.51562 15.1328C7.81283 14.6653 7.2367 14.0311 6.83865 13.2868C6.44059 12.5425 6.23299 11.7113 6.23438 10.8672C6.23438 9.91406 6.48438 9.03906 6.92969 8.28125C9.45312 11.3906 13.2422 13.4219 17.4922 13.6406C16.7656 10.1641 19.3672 7.34375 22.4922 7.34375C23.9688 7.34375 25.2969 7.96094 26.2344 8.96094C27.3906 8.74219 28.5 8.3125 29.4844 7.72656C29.1016 8.91406 28.2969 9.91406 27.2344 10.5469C28.2656 10.4375 29.2656 10.1484 30.1875 9.75C29.4922 10.7734 28.6172 11.6797 27.6172 12.4062Z" fill="black"/>
</svg>
